<svg xmlns="http://www.w3.org/2000/svg" xmlns:xlink="http://www.w3.org/1999/xlink" version="1.1" width="1000" height="1000" viewBox="0 0 1000 1000" xml:space="preserve">
<desc>Created with Fabric.js 3.5.0</desc>
<defs>
</defs>
<rect x="0" y="0" width="100%" height="100%" fill="#ffffff"/>
<g transform="matrix(0.0671 0 0 0.0671 72.2945 72.2945)" id="458912">
<g style="" vector-effect="non-scaling-stroke">
		<g transform="matrix(33.3333 0 0 33.3333 -0.0005 -0.0005)">
<path style="stroke: none; stroke-width: 1; stroke-dasharray: none; stroke-linecap: butt; stroke-dashoffset: 0; stroke-linejoin: miter; stroke-miterlimit: 4; is-custom-font: none; font-file-url: none; fill: none; fill-rule: nonzero; opacity: 1;" transform=" translate(-12, -12)" d="M 0 0 h 24 v 24 H 0 z" stroke-linecap="round"/>
</g>
		<g transform="matrix(33.3333 0 0 33.3333 -0.0003 -0.0003)">
<path style="stroke: none; stroke-width: 1; stroke-dasharray: none; stroke-linecap: butt; stroke-dashoffset: 0; stroke-linejoin: miter; stroke-miterlimit: 4; is-custom-font: none; font-file-url: none; fill: rgb(0,0,0); fill-rule: nonzero; opacity: 1;" transform=" translate(-12, -12)" d="M 12 2 c 5.52 0 10 4.48 10 10 s -4.48 10 -10 10 S 2 17.52 2 12 S 6.48 2 12 2 z M 6.023 15.416 C 7.491 17.606 9.695 19 12.16 19 c 2.464 0 4.669 -1.393 6.136 -3.584 A 8.968 8.968 0 0 0 12.16 13 a 8.968 8.968 0 0 0 -6.137 2.416 z M 12 11 a 3 3 0 1 0 0 -6 a 3 3 0 0 0 0 6 z" stroke-linecap="round"/>
</g>
</g>
</g>
</svg>