<svg width="24" height="24" viewBox="0 0 24 24" fill="none" xmlns="http://www.w3.org/2000/svg">
    <path fill-rule="evenodd" clip-rule="evenodd" d="M6.39 13.595a3.993 3.993 0 0 1 1.562-1.95A4.004 4.004 0 0 0 10.956 13h-.835c-.83 0-1.574.517-1.865 1.298L7.993 15h11.011c.55 0 .996.448.996 1s-.446 1-.996 1H7.994c-1.391 0-2.354-1.395-1.865-2.702l.262-.703zM9 20.5a1.5 1.5 0 1 1-3 0 1.5 1.5 0 0 1 3 0zm11 0a1.5 1.5 0 1 1-3 0 1.5 1.5 0 0 1 3 0z" fill="#333"/>
    <path fill-rule="evenodd" clip-rule="evenodd" d="M2 3a1 1 0 0 1 1-1h1.352c.79 0 1.508.465 1.829 1.188L6.542 4h13.454a2 2 0 0 1 1.84 2.788l-1.624 3.788A4.003 4.003 0 0 1 16.532 13h-5.576a4.003 4.003 0 0 1-3.658-2.375L4.352 4H3A1 1 0 0 1 2 3zm5.432 3 1.695 3.812A2.002 2.002 0 0 0 10.957 11h5.575c.8 0 1.524-.477 1.84-1.212L19.996 6H7.432z" fill="#333"/>
</svg>