<svg xmlns="http://www.w3.org/2000/svg" version="1.1"
    xmlnsXlink="http://www.w3.org/1999/xlink"
    xmlnsSvgjs="http://svgjs.com/svgjs" width="512" height="512" x="0" y="0" viewBox="0 0 24 24" style="enable-background:new 0 0 512 512" xml:space="preserve" class="">
    <g>
        <path d="m11.007 9.815-.956 2.869a1.007 1.007 0 0 0 1.265 1.264l2.869-.956a1.007 1.007 0 0 0 .39-.241l6.736-6.736a2.354 2.354 0 0 0 0-3.327 2.356 2.356 0 0 0-3.326 0l-6.736 6.737a1 1 0 0 0-.242.39z" fill="#fff" data-original="#fff" class=""></path>
        <path d="M21 9a1 1 0 0 0-1 1v7a3 3 0 0 1-3 3H7a3 3 0 0 1-3-3V7a3 3 0 0 1 3-3h7a1 1 0 0 0 0-2H7a5.006 5.006 0 0 0-5 5v10a5.006 5.006 0 0 0 5 5h10a5.006 5.006 0 0 0 5-5v-7a1 1 0 0 0-1-1z" fill="#fff" data-original="#fff" class=""></path>
    </g>
</svg>