<svg xmlns="http://www.w3.org/2000/svg" version="1.1"
    xmlnsXlink="http://www.w3.org/1999/xlink"
    xmlnsSvgjs="http://svgjs.com/svgjs" width="512" height="512" x="0" y="0" viewBox="0 0 512 512" style="enable-background:new 0 0 512 512" xml:space="preserve" class="">
    <g>
        <circle cx="490.189" cy="97.438" r="10.806" fill="#000000" data-original="#000000" class=""></circle>
        <path d="m134.59 178.672-26.563 16.889 32.436 51.014 54.76-34.816-32.437-51.015L135.02 178.4c-.14.1-.284.187-.43.272zM42.015 181.69a22.315 22.315 0 0 0 16.931 26.63l4.363.972L96.477 188.5a6.029 6.029 0 0 1 1.171-.565l19.482-12.386-48.484-10.79a22.34 22.34 0 0 0-26.631 16.931zM182.257 76.123a22.314 22.314 0 0 0-26.63 16.931l-15.048 67.589 19.741-12.552a6 6 0 0 1 1.015-.825l32.911-20.873 4.926-23.563a22.357 22.357 0 0 0-16.915-26.707zM265.234 104.021a24.476 24.476 0 0 0-5.316-.588 24.086 24.086 0 0 0-12.961 3.794l-74.044 47.079 32.437 51.014 94.5-60.086-19.429-30.556a24.088 24.088 0 0 0-15.187-10.657zM97.9 202l-75.665 48.109a24.272 24.272 0 0 0-7.45 33.467l19.427 30.556 96.125-61.118zM238.828 490.21h77.665a24.272 24.272 0 0 0 24.244-24.244V309.475H238.828zM68.667 465.966a24.272 24.272 0 0 0 24.244 24.244h57.653V309.475h-81.9zM162.564 309.475h64.264v180.734h-64.264zM413.828 242.97l2.87-16.734a6 6 0 0 0-8.706-6.325l-15.028 7.9-15.028-7.9a6 6 0 0 0-8.707 6.325l2.871 16.734-12.159 11.851a6 6 0 0 0 3.326 10.234l16.8 2.443 7.514 15.224a6 6 0 0 0 10.762 0l7.513-15.224 16.8-2.443a6 6 0 0 0 3.325-10.234zM482.836 160.3l-16.5-4.01-6.051-15.863a6 6 0 0 0-10.714-1.012l-8.911 14.453-16.957.852a6 6 0 0 0-4.272 9.876l10.991 12.942L426 193.927a6 6 0 0 0 8.073 7.116l15.7-6.454 14.221 9.277a6 6 0 0 0 9.261-5.48l-1.285-16.929 13.215-10.657a6 6 0 0 0-2.349-10.5zM451.446 50.045a6 6 0 0 0-4.438-4.521l-16.5-4.01-6.05-15.863a6 6 0 0 0-10.714-1.011l-8.91 14.453-16.958.852a6 6 0 0 0-4.273 9.876L394.6 62.762l-4.429 16.391a6 6 0 0 0 8.073 7.115l15.7-6.454 14.221 9.279a6 6 0 0 0 9.261-5.48l-1.286-16.931 13.216-10.657a6 6 0 0 0 2.09-5.98zM348.179 235.378c-29.072-7.194-50 .628-62.438 8.457-13.541 8.525-20.164 18.855-20.441 19.291a6 6 0 0 0 10.135 6.426c.9-1.4 22.608-34.214 69.859-22.526a6 6 0 1 0 2.883-11.648zM282.046 214.262a6 6 0 1 0 10.748 5.336 101.206 101.206 0 0 1 26.44-31.074c23.289-17.927 50.327-20.7 80.361-8.231a6 6 0 1 0 4.6-11.084c-42.714-17.727-73.758-4.452-92.28 9.807a112.512 112.512 0 0 0-29.869 35.246zM339.723 131.979a6 6 0 0 0-3.688 11.42 90.163 90.163 0 0 0 25.438 3.676c10.034 0 21.623-1.812 32.015-7.971 13.6-8.058 22.321-21.787 25.934-40.8a6 6 0 0 0-11.789-2.241c-2.938 15.461-9.737 26.46-20.211 32.691-19.922 11.846-47.267 3.363-47.699 3.225z" fill="#000000" data-original="#000000" class=""></path>
        <circle cx="252.862" cy="280.067" r="10.806" fill="#000000" data-original="#000000" class=""></circle>
        <circle cx="337.882" cy="84.067" r="10.806" fill="#000000" data-original="#000000" class=""></circle>
        <circle cx="237.634" cy="230.027" r="10.806" fill="#000000" data-original="#000000" class=""></circle>
        <circle cx="472.398" cy="247.618" r="10.806" fill="#000000" data-original="#000000" class=""></circle>
    </g>
</svg>